<svg width="1921" height="651" viewBox="0 0 1921 651" fill="none" xmlns="http://www.w3.org/2000/svg">
<path d="M170.706 108.787C89.9266 141.758 23.4106 109.542 0.25 89.3119V651C465.629 651 1559.84 649.008 1920.25 649.008V94.6564C1915.08 91.0332 1900.76 76.6307 1884.76 69.3843C1808.78 29.1666 1739.8 52.6269 1714.8 69.3843C1692.98 95.1997 1629.93 135.327 1552.35 89.3119C1474.77 43.2972 1386.72 62.8927 1352.4 78.4423C1320.74 92.1803 1242.73 109.602 1183.94 69.3843C948.003 -92.3015 835.532 73.0075 742.557 119.656C649.581 166.305 548.607 143.207 493.122 108.787C388.149 54.8914 271.679 67.5727 170.706 108.787Z" fill="url(#paint0_linear_242_8192)"/>
<defs>
<linearGradient id="paint0_linear_242_8192" x1="960.25" y1="0" x2="960.25" y2="661.421" gradientUnits="userSpaceOnUse">
<stop stop-color="#120243"/>
<stop offset="1"/>
</linearGradient>
</defs>
</svg>
