<svg width="1922" height="902" viewBox="0 0 1922 902" fill="none" xmlns="http://www.w3.org/2000/svg">
<path d="M171.312 120.1C90.5125 156.5 23.9792 120.933 0.8125 98.5998V901.5H1921.31V104.5C1916.15 100.5 1901.81 84.5998 1885.81 76.5998C1809.81 32.1998 1740.81 58.0998 1715.81 76.5998C1693.98 105.1 1630.91 149.4 1553.31 98.5998C1475.71 47.7998 1387.65 69.4331 1353.31 86.5998C1321.65 101.766 1243.61 121 1184.81 76.5998C948.812 -101.9 836.312 80.5998 743.312 132.1C650.312 183.6 549.312 158.1 493.812 120.1C388.812 60.5998 272.312 74.5998 171.312 120.1Z" fill="url(#paint0_linear_242_8369)"/>
<defs>
<linearGradient id="paint0_linear_242_8369" x1="961.062" y1="0" x2="961.062" y2="730.205" gradientUnits="userSpaceOnUse">
<stop stop-color="#0C012C"/>
<stop offset="1"/>
</linearGradient>
</defs>
</svg>
