<svg width="1922" height="916" viewBox="0 0 1922 916" fill="none" xmlns="http://www.w3.org/2000/svg">
<path d="M1751 795.385C1831.8 758.985 1898.33 794.551 1921.5 816.885L1921.5 0.785156L1.00004 0.785141L-0.00147346 816.885C5.16515 820.885 20.5 830.885 36.5 838.885C112.5 883.285 181.5 857.385 206.5 838.885C228.333 810.385 291.4 766.085 369 816.885C446.6 867.685 534.667 846.051 569 828.885C600.667 813.718 678.7 794.485 737.5 838.885C973.5 1017.38 1086 834.885 1179 783.385C1272 731.885 1373 757.385 1428.5 795.385C1533.5 854.885 1650 840.885 1751 795.385Z" fill="url(#paint0_linear_242_8337)"/>
<defs>
<linearGradient id="paint0_linear_242_8337" x1="961.25" y1="915.484" x2="961.25" y2="185.28" gradientUnits="userSpaceOnUse">
<stop stop-color="#170647"/>
<stop offset="1"/>
</linearGradient>
</defs>
</svg>
